<svg width="100%" height="auto" viewBox="0 0 1440 254" fill="none" xmlns="http://www.w3.org/2000/svg">
  <g clip-path="url(#clip0_44_29)">
    <path class="circle" d="M295.598 178.623C295.598 255.651 240.737 318.095 173.063 318.095C105.389 318.095 50.5286 255.651 50.5286 178.623C50.5286 101.594 105.389 39.1502 173.063 39.1502C240.737 39.1502 295.598 101.594 295.598 178.623Z" fill="#457B9D"/>
    <path class="circle" d="M464.812 159.048C464.812 210 410.474 270 343.444 270C276.415 270 222.077 210 222.077 159.048C222.077 108 276.415 48 343.444 48C410.474 48 464.812 108 464.812 159.048Z" fill="#457B9D"/>
<path class="circle" d="M852.254 174.952C852.254 240 798.178 305 731.47 305C664.763 305 610.686 240 610.686 174.952C610.686 109.905 664.763 45 731.47 45C798.178 45 852.254 109.905 852.254 174.952Z" fill="#457B9D"/>

   <path class="circle" d="M615.354 148.037C615.354 211.011 561.278 265.169 494.57 265.169C427.863 265.169 373.786 211.011 373.786 148.037C373.786 84.0622 427.863 28.9048 494.57 28.9048C561.278 28.9048 615.354 84.0622 615.354 148.037Z" fill="#457B9D"/>

    <path class="circle" d="M700.545 209.209C700.545 271.372 654.567 321.766 597.849 321.766C541.132 321.766 495.154 271.372 495.154 209.209C495.154 147.045 541.132 96.652 597.849 96.652C654.567 96.652 700.545 147.045 700.545 209.209Z" fill="#457B9D"/>
    <path class="circle" d="M1062.31 176.176C1062.31 254.556 1002.49 318.095 928.693 318.095C854.896 318.095 795.072 254.556 795.072 176.176C795.072 97.7959 854.896 34.2564 928.693 34.2564C1002.49 34.2564 1062.31 97.7959 1062.31 176.176Z" fill="#457B9D"/>
    <path class="circle" d="M143.888 196.974C143.888 252.381 100.261 297.297 46.4441 297.297C-7.37278 297.297 -51 252.381 -51 196.974C-51 141.568 -7.37278 96.652 46.4441 96.652C100.261 96.652 143.888 141.568 143.888 196.974Z" fill="#457B9D"/>
    <path class="circle" d="M1377.4 178.623C1377.4 255.651 1432.26 318.095 1499.94 318.095C1567.61 318.095 1622.47 255.651 1622.47 178.623C1622.47 101.594 1567.61 39.1502 1499.94 39.1502C1432.26 39.1502 1377.4 101.594 1377.4 178.623Z" fill="#457B9D"/>
   <path class="circle" d="M1208.19 159.048C1208.19 225 1262.53 285 1329.56 285C1396.58 285 1450.92 225 1450.92 159.048C1450.92 93 1396.58 33 1329.56 33C1262.53 33 1208.19 93 1208.19 159.048Z" fill="#457B9D"/>
    <path class="circle" d="M1079.82 177.399C1079.82 243.617 1124.75 297.297 1180.18 297.297C1235.61 297.297 1280.54 243.617 1280.54 177.399C1280.54 111.182 1235.61 57.5018 1180.18 57.5018C1124.75 57.5018 1079.82 111.182 1079.82 177.399Z" fill="#457B9D"/>
    <path class="circle" d="M996.962 186.575C996.962 229.481 1027.79 264.264 1065.81 264.264C1103.84 264.264 1134.67 229.481 1134.67 186.575C1134.67 143.669 1103.84 108.886 1065.81 108.886C1027.79 108.886 996.962 143.669 996.962 186.575Z" fill="#457B9D"/>
    <path class="circle" d="M1529.11 196.974C1529.11 252.381 1572.74 297.297 1626.56 297.297C1680.37 297.297 1724 252.381 1724 196.974C1724 141.568 1680.37 96.652 1626.56 96.652C1572.74 96.652 1529.11 141.568 1529.11 196.974Z" fill="#457B9D"/>
  </g>
  <defs>
    <clipPath id="clip0_44_29">
      <rect width="1440" height="254" fill="white"/>
    </clipPath>
  </defs>

  <style>
    .circle {
      animation: moveUpDown 2s infinite ease-in-out;
    }

    @keyframes moveUpDown {
      0% {
        transform: translateY(-5);
      }
      50% {
        transform: translateY(-5px);
      }
      100% {
        transform: translateY(0);
      }
    }
  </style>
</svg>
